<?xml version="1.0" encoding="utf-8"?>
<!-- Generator: Adobe Illustrator 16.0.0, SVG Export Plug-In . SVG Version: 6.00 Build 0)  -->
<!DOCTYPE svg PUBLIC "-//W3C//DTD SVG 1.1//EN" "http://www.w3.org/Graphics/SVG/1.1/DTD/svg11.dtd">
<svg class="googlePlay_svg__svg" viewBox="0 0 140 44" fill="none">
    <path fill-rule="evenodd" clip-rule="evenodd" d="M4 0a4 4 0 00-4 4v36a4 4 0 004 4h132a4 4 0 004-4V4a4 4 0 00-4-4H4z" fill="#fff"></path>
    <g fill-rule="evenodd" clip-rule="evenodd">
        <path d="M28.664 18.773l-13.25-7.255c-.353-.202-.705-.252-1.008-.151L25.29 22.199l3.375-3.426z" fill="url(#googlePlay_svg__gPlaypaint0_linear)"></path>
        <path d="M28.715 25.626l4.534-2.469c.907-.504.907-1.31 0-1.814l-4.534-2.519-3.426 3.376 3.426 3.426z" fill="url(#googlePlay_svg__gPlaypaint1_linear)"></path>
        <path d="M14.405 11.316c-.403.152-.655.555-.655 1.16v19.446c0 .605.252 1.008.655 1.16l10.882-10.883-10.882-10.883z"
              fill="url(#googlePlay_svg__gPlaypaint2_linear)"></path>
        <path d="M14.406 33.082c.303.1.655.05 1.008-.151l13.25-7.306L25.29 22.2 14.406 33.082z" fill="url(#googlePlay_svg__gPlaypaint3_linear)"></path>
    </g>
    <path fill-rule="evenodd" clip-rule="evenodd"
          d="M54.515 30.757c-1.104 1.131-2.514 1.735-4.386 1.735-3.465 0-6.379-2.777-6.379-6.188 0-3.411 2.914-6.189 6.38-6.189 1.916 0 3.281.74 4.308 1.706l-1.21 1.192a4.416 4.416 0 00-3.099-1.207 4.474 4.474 0 00-4.508 4.498 4.474 4.474 0 004.508 4.498c1.641 0 2.577-.65 3.175-1.238.49-.483.812-1.177.935-2.128h-4.11v-1.69h5.782c.061.301.092.664.092 1.056 0 1.268-.353 2.838-1.488 3.955zm30.596 1.494h-1.779V20.538h1.779v11.713zm13.34-11.68h4.039c1.97 0 3.709 1.457 3.709 3.526s-1.739 3.525-3.709 3.525h-2.516v4.8H98.45v-11.85zm1.523 5.595h2.549c1.358 0 2.12-1.126 2.12-2.069 0-.944-.762-2.07-2.12-2.07h-2.55v4.139zm7.593-5.595h1.367v11.852h-1.367V20.57zm2.599 5.165c.284-.746 1.271-1.974 3.328-1.974 2.008 0 3.647 1.194 3.647 3.484v4.91h-1.472V31.03h-.067c-.452.68-1.288 1.394-2.693 1.394-1.673 0-3.061-1.029-3.061-2.722 0-1.841 1.672-2.837 3.596-2.837 1.104 0 1.907.316 2.225.498v-.232c0-1.228-.987-1.975-2.141-1.975-.853 0-1.673.415-1.958 1.178l-1.404-.597zm1.288 3.999c0 .863.903 1.294 1.706 1.294 1.221 0 2.509-1.046 2.509-2.373 0 0-.653-.53-1.957-.53-1.623 0-2.258.862-2.258 1.609zm14.345-5.973l-5.141 11.851h-1.59l1.908-4.146-3.382-7.705h1.674l2.445 5.909h.034l2.377-5.91h1.675zm-38.068 4.625a2.2 2.2 0 012.117-2.325c.705 0 1.303.348 1.502.845l-3.619 1.48zm2.255 4.105c1.855 0 2.928-1.117 3.373-1.765l-1.38-.906c-.46.664-1.089 1.102-1.993 1.102-.905 0-1.55-.408-1.963-1.208l5.413-2.204-.184-.453c-.338-.89-1.365-2.535-3.466-2.535-2.085 0-3.818 1.615-3.818 3.985 0 2.234 1.717 3.984 4.018 3.984zm-7.883-.573c0 2.943-1.763 4.15-3.849 4.15-1.963 0-3.144-1.297-3.588-2.354l1.549-.634c.276.649.95 1.419 2.04 1.419 1.333 0 2.162-.815 2.162-2.34v-.573h-.062c-.399.483-1.166.905-2.131.905-2.025 0-3.88-1.735-3.88-3.97 0-2.248 1.855-4 3.88-4 .965 0 1.732.423 2.131.891h.061v-.649h1.687v7.155zm-5.982-3.396c0 1.389 1.028 2.4 2.255 2.4 1.21 0 2.162-1.011 2.162-2.4 0-1.404-.951-2.43-2.162-2.43-1.228 0-2.255 1.026-2.255 2.43zm-6.577 3.97c2.239 0 4.064-1.691 4.064-3.985 0-2.31-1.825-3.985-4.064-3.985s-4.064 1.675-4.064 3.985c0 2.294 1.825 3.984 4.064 3.984zm-.001-1.57c-1.228 0-2.286-.996-2.286-2.415 0-1.434 1.058-2.415 2.285-2.415s2.285.98 2.285 2.415c0 1.419-1.058 2.415-2.284 2.415zm-4.798-2.415c0 2.294-1.825 3.984-4.064 3.984s-4.064-1.69-4.064-3.984c0-2.31 1.825-3.985 4.064-3.985 2.24 0 4.064 1.675 4.064 3.985zm-6.35 0c0 1.419 1.057 2.415 2.284 2.415 1.227 0 2.285-.996 2.285-2.415 0-1.434-1.058-2.415-2.285-2.415s-2.285.98-2.285 2.415zM47.632 13.822a1.66 1.66 0 01-.604.479 2.675 2.675 0 01-.552.188 3.306 3.306 0 01-.757.077c-.325 0-.623-.056-.895-.168a1.941 1.941 0 01-.7-.484 2.213 2.213 0 01-.454-.78 3.193 3.193 0 01-.162-1.057v-.342c0-.394.048-.746.146-1.056.097-.31.237-.572.42-.785.183-.214.406-.377.67-.488.263-.112.562-.168.897-.168.316 0 .591.041.826.123a1.602 1.602 0 01.976.869c.093.203.154.426.185.668h-.883a1.515 1.515 0 00-.107-.374.908.908 0 00-.205-.296.922.922 0 00-.32-.196 1.298 1.298 0 00-.454-.07c-.212 0-.395.038-.55.117a1.025 1.025 0 00-.389.343c-.103.151-.18.336-.231.556-.051.22-.077.47-.077.75v.349c0 .284.031.537.093.756.062.22.15.405.265.554.115.15.255.264.42.342.166.078.352.118.561.118.155 0 .287-.01.397-.03.11-.021.204-.046.28-.077a.828.828 0 00.306-.207v-1.015h-1.068v-.684h1.966v1.988zm4.02-1.642h-2.13v1.595h2.49v.72h-3.39V9.31h3.365v.726h-2.464v1.432h2.13v.712zm4.84-2.144h-1.617v4.459h-.894v-4.459H52.38V9.31h4.113v.726zm3.448 4.459h-.897V9.31h.897v5.185zm4.853-4.459h-1.617v4.459h-.894v-4.459H60.68V9.31h4.113v.726zm6.635 2.001c0 .394-.052.748-.155 1.06a2.306 2.306 0 01-.436.794 1.893 1.893 0 01-.677.5 2.145 2.145 0 01-.876.175c-.318 0-.61-.058-.873-.175a1.945 1.945 0 01-.682-.5 2.303 2.303 0 01-.445-.794 3.294 3.294 0 01-.158-1.06v-.263c0-.394.052-.748.158-1.061.106-.314.253-.58.442-.798a1.9 1.9 0 01.678-.502c.264-.117.555-.175.873-.175.32 0 .613.058.877.175.265.116.492.283.68.502.19.218.335.484.439.798.103.313.155.667.155 1.06v.264zm-.901-.27c0-.29-.028-.546-.084-.768a1.635 1.635 0 00-.244-.557 1.056 1.056 0 00-.394-.34 1.173 1.173 0 00-.528-.116 1.075 1.075 0 00-.913.456c-.109.15-.192.335-.25.557a3.04 3.04 0 00-.087.768v.27c0 .29.029.546.087.77.058.223.142.41.251.56a1.08 1.08 0 00.919.458c.399 0 .706-.152.92-.456.215-.304.323-.748.323-1.332v-.27zm5.911 2.728h-.9l-2.312-3.68v3.68h-.9V9.31h.9l2.318 3.692V9.31h.894v5.185z"
          fill="#4A4A4A"></path>
    <defs>
        <linearGradient id="googlePlay_svg__gPlaypaint0_linear" x1="33.779" y1="19.864" x2="31.542" y2="3.176" gradientUnits="userSpaceOnUse">
            <stop stop-color="#D6FFA1"></stop>
            <stop offset="0.326" stop-color="#93E2A7"></stop>
            <stop offset="1" stop-color="#00A3B5"></stop>
        </linearGradient>
        <linearGradient id="googlePlay_svg__gPlaypaint1_linear" x1="11.979" y1="13.821" x2="18.424" y2="31.582" gradientUnits="userSpaceOnUse">
            <stop stop-color="#FF177B"></stop>
            <stop offset="0.672" stop-color="#FFA976"></stop>
            <stop offset="1" stop-color="#FFEC73"></stop>
        </linearGradient>
        <linearGradient id="googlePlay_svg__gPlaypaint2_linear" x1="25.613" y1="22.033" x2="11.635" y2="6.879" gradientUnits="userSpaceOnUse">
            <stop stop-color="#63FFD4"></stop>
            <stop offset="0.485" stop-color="#32A0BA"></stop>
            <stop offset="0.835" stop-color="#1262A9"></stop>
            <stop offset="1" stop-color="#064AA2"></stop>
        </linearGradient>
        <linearGradient id="googlePlay_svg__gPlaypaint3_linear" x1="29.629" y1="18.288" x2="9.726" y2="22.925" gradientUnits="userSpaceOnUse">
            <stop stop-color="#FF4521"></stop>
            <stop offset="0.341" stop-color="#D43E65"></stop>
            <stop offset="0.793" stop-color="#9F36B9"></stop>
            <stop offset="1" stop-color="#8A33DB"></stop>
        </linearGradient>
    </defs>
</svg>
