<svg xmlns="http://www.w3.org/2000/svg" viewBox="0 0 463 90.9"><defs><style>.cls-1{fill:#7f7f7f;}.cls-2{fill:#0d1a41;}.cls-3{fill:#f16028;}</style></defs><g id="Layer_2" data-name="Layer 2"><g id="Layer_1-2" data-name="Layer 1"><path class="cls-1" d="M83.4,90.5V80.7L76.2,67.5h3.4l3.2,6.3c.9,1.7,1.6,3.1,2.3,4.7h.1a50.2,50.2,0,0,1,2.3-4.7l3.3-6.3h3.4L86.5,80.7v9.8Z"/><path class="cls-1" d="M110.2,90.5l-.2-2.1h-.1a6.12,6.12,0,0,1-5,2.5,4.7,4.7,0,0,1-5-4.7c0-4,3.5-6.2,9.9-6.1v-.3c0-1.4-.4-3.8-3.8-3.8a8.94,8.94,0,0,0-4.3,1.2l-.7-2a10.09,10.09,0,0,1,5.4-1.5c5,0,6.3,3.4,6.3,6.8v6.2a25,25,0,0,0,.3,4h-2.8Zm-.4-8.4c-3.3-.1-7,.5-7,3.7a2.7,2.7,0,0,0,2.8,2.9,4.22,4.22,0,0,0,4-2.8,3,3,0,0,0,.2-1Z"/><path class="cls-1" d="M133.5,90.5l-.2-2.1h-.1a6.12,6.12,0,0,1-5,2.5,4.7,4.7,0,0,1-5-4.7c0-4,3.5-6.2,9.9-6.1v-.3c0-1.4-.4-3.8-3.8-3.8a8.94,8.94,0,0,0-4.3,1.2l-.7-2a10.09,10.09,0,0,1,5.4-1.5c5,0,6.3,3.4,6.3,6.8v6.2a25,25,0,0,0,.3,4h-2.8Zm-.5-8.4c-3.3-.1-7,.5-7,3.7a2.7,2.7,0,0,0,2.8,2.9,4.22,4.22,0,0,0,4-2.8,3,3,0,0,0,.2-1Z"/><path class="cls-1" d="M161.8,66.3V86.2c0,1.5,0,3.1.1,4.3h-2.7l-.1-2.9H159a6.08,6.08,0,0,1-5.6,3.2c-4,0-7.1-3.4-7.1-8.4,0-5.5,3.4-8.9,7.4-8.9a5.7,5.7,0,0,1,5,2.5h.1V66.1h3Zm-3,14.4a5.7,5.7,0,0,0-.1-1.3,4.41,4.41,0,0,0-4.3-3.5c-3.1,0-4.9,2.7-4.9,6.4,0,3.3,1.6,6.1,4.9,6.1a4.45,4.45,0,0,0,4.4-3.6,5.28,5.28,0,0,0,.1-1.3V80.7Z"/><path class="cls-1" d="M175.3,82.8c.1,4.1,2.7,5.7,5.7,5.7a11,11,0,0,0,4.6-.9l.5,2.1a13.38,13.38,0,0,1-5.5,1c-5.1,0-8.1-3.3-8.1-8.3s2.9-8.9,7.7-8.9c5.4,0,6.8,4.7,6.8,7.8,0,.6-.1,1.1-.1,1.4H175.3Zm8.8-2.2c0-1.9-.8-4.9-4.2-4.9-3,0-4.4,2.8-4.6,4.9Z"/><path class="cls-1" d="M200.8,69.4a1.76,1.76,0,0,1-1.9,1.8,1.73,1.73,0,0,1-1.8-1.8,1.84,1.84,0,0,1,1.9-1.9A1.76,1.76,0,0,1,200.8,69.4Zm-3.3,21.1V74h3V90.5Z"/><path class="cls-1" d="M212.3,78.5c0-1.7,0-3.1-.1-4.5h2.7l.2,2.7h.1a6,6,0,0,1,5.5-3.1c2.3,0,5.8,1.4,5.8,7v9.9h-3V81c0-2.7-1-4.9-3.8-4.9a4.2,4.2,0,0,0-4,3.1,5.9,5.9,0,0,0-.2,1.4v9.9h-3v-12Z"/><path class="cls-1" d="M252.2,67.8a26.09,26.09,0,0,1,5.4-.5c3,0,4.9.5,6.3,1.7a4.9,4.9,0,0,1,1.9,4.1,5.38,5.38,0,0,1-3.9,5v.1a5.89,5.89,0,0,1,4.7,5.8,6.3,6.3,0,0,1-1.9,4.6c-1.6,1.5-4.2,2.1-7.9,2.1a26.13,26.13,0,0,1-4.6-.3Zm2.9,9.4h2.7c3.1,0,5-1.6,5-3.9,0-2.7-2-3.8-5-3.8a12.59,12.59,0,0,0-2.6.2v7.5Zm0,11a17,17,0,0,0,2.5.1c3.1,0,5.9-1.1,5.9-4.5,0-3.1-2.7-4.4-5.9-4.4h-2.5Z"/><path class="cls-1" d="M286.5,90.5l-.2-2.1h-.1a6.12,6.12,0,0,1-5,2.5,4.7,4.7,0,0,1-5-4.7c0-4,3.5-6.2,9.9-6.1v-.3c0-1.4-.4-3.8-3.8-3.8a8.94,8.94,0,0,0-4.3,1.2l-.7-2a10.09,10.09,0,0,1,5.4-1.5c5,0,6.3,3.4,6.3,6.8v6.2a25,25,0,0,0,.3,4h-2.8Zm-.5-8.4c-3.3-.1-7,.5-7,3.7a2.7,2.7,0,0,0,2.8,2.9,4.22,4.22,0,0,0,4-2.8,3,3,0,0,0,.2-1Z"/><path class="cls-1" d="M300.6,78.5c0-1.7,0-3.1-.1-4.5h2.7l.2,2.7h.1a6,6,0,0,1,5.5-3.1c2.3,0,5.8,1.4,5.8,7v9.9h-3V81c0-2.7-1-4.9-3.8-4.9a4.2,4.2,0,0,0-4,3.1,5.9,5.9,0,0,0-.2,1.4v9.9h-3v-12Z"/><path class="cls-1" d="M335.5,90.5l-.2-2.1h-.1a6.12,6.12,0,0,1-5,2.5,4.7,4.7,0,0,1-5-4.7c0-4,3.5-6.2,9.9-6.1v-.3c0-1.4-.4-3.8-3.8-3.8a8.94,8.94,0,0,0-4.3,1.2l-.7-2a10.09,10.09,0,0,1,5.4-1.5c5,0,6.3,3.4,6.3,6.8v6.2a25,25,0,0,0,.3,4h-2.8Zm-.5-8.4c-3.3-.1-7,.5-7,3.7a2.7,2.7,0,0,0,2.8,2.9,4.22,4.22,0,0,0,4-2.8,3,3,0,0,0,.2-1Z"/><path class="cls-1" d="M364.5,82.1c0,6.1-4.2,8.8-8.2,8.8-4.5,0-7.9-3.3-7.9-8.5,0-5.5,3.6-8.8,8.2-8.8S364.5,77.1,364.5,82.1Zm-13.1.2c0,3.6,2.1,6.3,5,6.3s5-2.7,5-6.4c0-2.8-1.4-6.3-4.9-6.3S351.4,79.1,351.4,82.3Z"/><path class="cls-1" d="M374.5,88.8a2,2,0,0,1,2-2.1,2.1,2.1,0,1,1-2,2.1Zm.9-4.9-.5-16.4h3.3l-.5,16.4Z"/><path class="cls-2" d="M25.2,22a9.56,9.56,0,0,0-5.8-2.7v-.1a10.72,10.72,0,0,0,4.7-2.9,7.65,7.65,0,0,0,1.8-5.2,8.3,8.3,0,0,0-1-4.3,8.12,8.12,0,0,0-2.6-2.9,9.71,9.71,0,0,0-3.6-1.6,19.15,19.15,0,0,0-4.1-.5H.1V30.1a5.86,5.86,0,0,1,3.7-1.2,7.27,7.27,0,0,1,2.9.7v-7h6.2a11.73,11.73,0,0,1,6,1.2,4.39,4.39,0,0,1,2,4.1,5,5,0,0,1-.8,2.9,5.51,5.51,0,0,1-2,1.7,10.67,10.67,0,0,1-2.7.8c-1,.1-1.9.2-2.7.2H10a6.26,6.26,0,0,1-.9,5.6h4.5a23.06,23.06,0,0,0,5.2-.6,15.14,15.14,0,0,0,4.5-1.8,9.21,9.21,0,0,0,3.2-3.3,10.13,10.13,0,0,0,1.2-5.1A9.33,9.33,0,0,0,25.2,22Zm-7.6-6.5a8,8,0,0,1-5,1.3H6.7V7.2H12a11.66,11.66,0,0,1,5.6,1,3.82,3.82,0,0,1,1.8,3.6A4.9,4.9,0,0,1,17.6,15.5Z"/><circle class="cls-3" cx="3.8" cy="35.1" r="3.8"/><path class="cls-2" d="M306.3,28.8l-4-6.5a11.42,11.42,0,0,0,6.2-3.4,9.64,9.64,0,0,0,2.3-6.6,9.74,9.74,0,0,0-1.2-5A9,9,0,0,0,306.5,4a14.52,14.52,0,0,0-4.4-1.8,21,21,0,0,0-5.1-.5H284.1V38.8h6.6V23h4.8l4.9,9a6.53,6.53,0,0,1,5.5-3.3A.76.76,0,0,0,306.3,28.8ZM299,17.4a26.35,26.35,0,0,1-2.8.2h-5.4V7.2h6a24.62,24.62,0,0,1,2.6.2,6.19,6.19,0,0,1,2.4.8,5,5,0,0,1,1.7,1.5,3.9,3.9,0,0,1,.7,2.5,4.53,4.53,0,0,1-.7,2.7,4.21,4.21,0,0,1-1.9,1.6A8,8,0,0,1,299,17.4Z"/><circle class="cls-2" cx="306.1" cy="35.1" r="3.8"/><path class="cls-2" d="M182.5,29.6a5.71,5.71,0,0,1,3.2-.9,6.74,6.74,0,0,1,3.4,1V22.5L203,1.5h-7.6l-9.5,14.8L176.4,1.5h-7.8l13.9,21v7.1Z"/><circle class="cls-3" cx="185.7" cy="35.1" r="3.8"/><path class="cls-2" d="M270.2,9.8V24.1a11.24,11.24,0,0,1-.4,3.2,7.81,7.81,0,0,1-1.4,2.9,6.7,6.7,0,0,1-2.6,2,10.4,10.4,0,0,1-8,0,7.53,7.53,0,0,1-2.6-2,8.7,8.7,0,0,1-1.4-2.9,11.7,11.7,0,0,1-.4-3.2V.9h-6.6V24.4a16,16,0,0,0,1.1,6A14.9,14.9,0,0,0,251,35a13.29,13.29,0,0,0,4.7,2.9,17.91,17.91,0,0,0,11.8,0,13.12,13.12,0,0,0,7.8-7.5,14.61,14.61,0,0,0,1.2-6V9.7a6.39,6.39,0,0,1-3.3,1A5.53,5.53,0,0,1,270.2,9.8Z"/><circle class="cls-2" cx="273.4" cy="4.4" r="3.8"/><path class="cls-2" d="M416.2,9.8,411,29h-.1l-8-27.2h-6.8L387.9,29h-.1L380.7,1.8h-7.2l10.8,37.1h6.4l8.7-27.8h.1l8.7,27.8h6.4l8.1-27.6a6.28,6.28,0,0,1-1.9.3A6,6,0,0,1,416.2,9.8Z"/><circle class="cls-2" cx="420.7" cy="5.3" r="3.8"/><path class="cls-2" d="M455.8,10.8V29.6h-.1L438.5,1.8h-8.7V38.9h6.6V10.3h.1L454.1,39h8.4V10.9a6.29,6.29,0,0,1-3.3.9A6.74,6.74,0,0,1,455.8,10.8Z"/><circle class="cls-2" cx="459.2" cy="5.4" r="3.8"/><path class="cls-2" d="M149,38.8,130.6,19,147.9,1.9H139l-15.5,16h-.2V10.7a6.39,6.39,0,0,1-3.3,1,6.29,6.29,0,0,1-3.3-.9V39h6.6V20.3h.2l16.3,18.6h9.1A.1.1,0,0,0,149,38.8Z"/><circle class="cls-2" cx="120.1" cy="5.3" r="3.8"/><circle class="cls-3" cx="353.8" cy="13.1" r="2.5"/><path class="cls-2" d="M353.8.3a12.8,12.8,0,1,0,12.8,12.8A12.89,12.89,0,0,0,353.8.3Zm0,21.1a8.4,8.4,0,1,1,8.4-8.4A8.39,8.39,0,0,1,353.8,21.4Z"/><circle class="cls-2" cx="49.4" cy="19.4" r="3.8"/><path class="cls-2" d="M49.4,0A19.5,19.5,0,1,0,68.9,19.5,19.46,19.46,0,0,0,49.4,0Zm0,32.2A12.8,12.8,0,1,1,62.3,19.4,12.91,12.91,0,0,1,49.4,32.2Z"/><circle class="cls-2" cx="91.7" cy="19.4" r="3.8"/><path class="cls-2" d="M91.7,0a19.5,19.5,0,1,0,19.5,19.5A19.46,19.46,0,0,0,91.7,0Zm0,32.2a12.8,12.8,0,1,1,12.8-12.8A12.76,12.76,0,0,1,91.7,32.2Z"/><circle class="cls-2" cx="221.6" cy="19.4" r="3.8"/><path class="cls-2" d="M221.6,0a19.5,19.5,0,1,0,19.5,19.5A19.46,19.46,0,0,0,221.6,0Zm0,32.2a12.8,12.8,0,1,1,12.8-12.8A12.89,12.89,0,0,1,221.6,32.2Z"/><path class="cls-2" d="M353.8.3a13.87,13.87,0,0,0-13.9,13.9c0,11.7,13.9,25.3,13.9,25.3S367.7,26,367.7,14.2A13.87,13.87,0,0,0,353.8.3Zm0,23.1a9.3,9.3,0,1,1,9.3-9.3A9.35,9.35,0,0,1,353.8,23.4Z"/></g></g></svg>